# xmcd
#
# Track frame offsets: 
#        150
#        20917
#        48260
#        66597
#        84770
#        105180
#        118295
#        132260
#        164120
#        180755
#        206427
#        222567
#        242270
#        259517
#        272222
#        289745
#        312362
#
# Disc length: 4380 seconds
#
# Revision: 10
# Processed by: cddbd v1.5.2PL0 Copyright (c) Steve Scherf et al.
# Submitted via: ExactAudioCopyFreeDBPlugin 1.0
#
DISCID=f6111a11
DTITLE=Various Artist - The Alligator Records 20th Anniversary Collection [CD
DTITLE=2,1974-90]
DYEAR=1974
DGENRE=Blues
TTITLE0=Albert Collins - Brick (Albert Collins) [1980,from'Frostbite']
TTITLE1=Katie Webster - Pussycat Moan (Katie Webster) [1989,from'Two-F
TTITLE1=istedMama!']
TTITLE2=Lil' Ed And The Blues Imperials - You Don't Exist Any More (Li
TTITLE2=l' Ed And The Blues Imperials) [1986,from'Roughhousin'']
TTITLE3=Carey Bell - Second Hand Man (Carey Bell ft. Juniour Wells) [1
TTITLE3=990,from'HarpAttack!']
TTITLE4=Delbert McClinton - I've Got Dreams To Remember (Delbert McCli
TTITLE4=nton) [1989,from'LiveFromAustin']
TTITLE5=Paladins - Going Down To Big Mary's (ThePaladins) [1988,from'Y
TTITLE5=earsSinceYesterday']
TTITLE6=Big Twist And The Mellow Fellows - 300 Pounds Of Heaveny Joy (
TTITLE6=Big Twist And The Mellow Fellows) [1983,from'300PoundsOfHeaven
TTITLE6=lyJoy']
TTITLE7=Son Seals - Going Back Home (Son Seals) [1976,from'MidnightSon
TTITLE7=']
TTITLE8=Lonnie Mack - Strike Like Lightning (Lonnie Mack) [1985,from'S
TTITLE8=trikeLikeLightning']
TTITLE9=Saffire-The Uppity Blues Women - The Middle Aged Blued Boogie 
TTITLE9=(Saffire-The Uppity Blues Women) [1990,from'TheUppityBluesWome
TTITLE9=n']
TTITLE10=Lonnie Brooks - Eyeballin' (Lonnie Brooks) [1981,from'TurnOnT
TTITLE10=heNight']
TTITLE11=Kinsey Report - Full Moon On Main Street (Kinsey Report) [198
TTITLE11=7,from'EdgeOfTheCity']
TTITLE12=Sonny Terry - Crow Jane (Sonny Terry) [1984,from'Whoopin'']
TTITLE13=Clifton Chenier - I'm The Zydeco Man (Clifton Chenier And His
TTITLE13=Red Hot Louisiana Band) [1982,from'I'mHere!']
TTITLE14=Fenton Robinson - You Don't Know What Love Is (Fenton Robinso
TTITLE14=n) [1974,from'SomebodyLoanMeADime']
TTITLE15=Pinetop Perkins - Blues After Hours (Pinetop Perkins) [1978,f
TTITLE15=rom'LivingChicagoBlues,Volume3']
TTITLE16=Johnny Winter - Boot Hill (Johnny Winter) [1984,from'GuitarSl
TTITLE16=inger']
EXTD=LABEL =Alligator Records and Artist Mgmt., Inc.\nID =ALCD105, ALC
EXTD=D106\nUPC =014551-1056-26\nCOPYRIGHT =1991 YEAR: 1991
EXTT0=
EXTT1=
EXTT2=
EXTT3=
EXTT4=
EXTT5=
EXTT6=
EXTT7=
EXTT8=
EXTT9=
EXTT10=
EXTT11=
EXTT12=
EXTT13=
EXTT14=
EXTT15=
EXTT16=
PLAYORDER=
